<svg width="62" height="50" viewBox="0 0 62 50" fill="none" xmlns="http://www.w3.org/2000/svg">
<path d="M3.08852 13.8983C3.08852 14.7512 2.39713 15.4426 1.54426 15.4426C0.691388 15.4426 0 14.7512 0 13.8983V7.7213C0 3.45694 3.45694 0 7.7213 0H13.8983C14.7512 0 15.4426 0.691388 15.4426 1.54426C15.4426 2.39713 14.7512 3.08852 13.8983 3.08852H7.7213C5.16268 3.08852 3.08852 5.16268 3.08852 7.7213V13.8983ZM47.872 3.08852C47.0192 3.08852 46.3278 2.39713 46.3278 1.54426C46.3278 0.691388 47.0192 0 47.872 0H54.0491C58.3134 0 61.7704 3.45694 61.7704 7.7213V13.8983C61.7704 14.7512 61.079 15.4426 60.2261 15.4426C59.3732 15.4426 58.6819 14.7512 58.6819 13.8983V7.7213C58.6819 5.16268 56.6077 3.08852 54.0491 3.08852H47.872ZM13.8983 46.3278C14.7512 46.3278 15.4426 47.0192 15.4426 47.872C15.4426 48.7249 14.7512 49.4163 13.8983 49.4163H7.7213C3.45694 49.4163 0 45.9594 0 41.695V35.518C0 34.6651 0.691388 33.9737 1.54426 33.9737C2.39713 33.9737 3.08852 34.6651 3.08852 35.518V41.695C3.08852 44.2536 5.16268 46.3278 7.7213 46.3278H13.8983ZM58.6819 35.518C58.6819 34.6651 59.3732 33.9737 60.2261 33.9737C61.079 33.9737 61.7704 34.6651 61.7704 35.518V41.695C61.7704 45.9594 58.3134 49.4163 54.0491 49.4163H47.872C47.0192 49.4163 46.3278 48.7249 46.3278 47.872C46.3278 47.0192 47.0192 46.3278 47.872 46.3278H54.0491C56.6077 46.3278 58.6819 44.2536 58.6819 41.695V35.518ZM9.26556 10.8098C9.26556 9.95694 9.95694 9.26556 10.8098 9.26556C11.6627 9.26556 12.3541 9.95694 12.3541 10.8098V38.6065C12.3541 39.4594 11.6627 40.1507 10.8098 40.1507C9.95694 40.1507 9.26556 39.4594 9.26556 38.6065V10.8098ZM18.5311 10.8098C18.5311 9.95694 19.2225 9.26556 20.0754 9.26556C20.9282 9.26556 21.6196 9.95694 21.6196 10.8098V38.6065C21.6196 39.4594 20.9282 40.1507 20.0754 40.1507C19.2225 40.1507 18.5311 39.4594 18.5311 38.6065V10.8098ZM24.7081 10.8098C24.7081 9.95694 25.3995 9.26556 26.2524 9.26556C27.1053 9.26556 27.7967 9.95694 27.7967 10.8098V38.6065C27.7967 39.4594 27.1053 40.1507 26.2524 40.1507C25.3995 40.1507 24.7081 39.4594 24.7081 38.6065V10.8098ZM30.8852 10.8098C30.8852 9.95694 31.5766 9.26556 32.4294 9.26556C33.2823 9.26556 33.9737 9.95694 33.9737 10.8098V38.6065C33.9737 39.4594 33.2823 40.1507 32.4294 40.1507C31.5766 40.1507 30.8852 39.4594 30.8852 38.6065V10.8098ZM43.2393 10.8098C43.2393 9.95694 43.9306 9.26556 44.7835 9.26556C45.6364 9.26556 46.3278 9.95694 46.3278 10.8098V38.6065C46.3278 39.4594 45.6364 40.1507 44.7835 40.1507C43.9306 40.1507 43.2393 39.4594 43.2393 38.6065V10.8098ZM49.4163 10.8098C49.4163 9.95694 50.1077 9.26556 50.9606 9.26556C51.8134 9.26556 52.5048 9.95694 52.5048 10.8098V38.6065C52.5048 39.4594 51.8134 40.1507 50.9606 40.1507C50.1077 40.1507 49.4163 39.4594 49.4163 38.6065V10.8098Z" fill="white"/>
</svg>
