<svg width="20" height="18" viewBox="0 0 20 18" fill="none" xmlns="http://www.w3.org/2000/svg">
<path fill-rule="evenodd" clip-rule="evenodd" d="M6.84502 0.00632526C6.81007 0.00912653 6.77584 0.0177986 6.74377 0.0319592L0.188984 2.8787C0.138413 2.90057 0.0945241 2.93548 0.0617663 2.97978C0.0290086 3.02409 0.00854676 3.07623 0.00245525 3.13099C-0.00363626 3.18575 0.00485913 3.24117 0.0270802 3.29159C0.0493012 3.34201 0.0844578 3.38563 0.128986 3.41808L2.94139 5.46299L0.128986 7.5073C0.0843025 7.53972 0.0490044 7.58345 0.0266834 7.63394C0.00436234 7.68443 -0.0041849 7.7399 0.00191139 7.79477C0.00800768 7.84963 0.0285299 7.90192 0.0613898 7.94628C0.0942497 7.99064 0.138274 8.02547 0.188984 8.04729L3.12576 9.32227V13.9027C3.12548 13.9269 3.12799 13.951 3.13326 13.9746C3.11679 14.0468 3.12647 14.1224 3.16057 14.1881C3.19468 14.2538 3.251 14.3053 3.31951 14.3333L9.87117 17.1302C9.88381 17.135 9.89676 17.1389 9.90992 17.142C9.91283 17.142 9.91575 17.142 9.91867 17.142C9.92279 17.1442 9.92695 17.1463 9.93117 17.1483C9.9392 17.1507 9.94734 17.1528 9.95554 17.1545C9.95762 17.1545 9.95971 17.1545 9.96179 17.1545C9.96242 17.1545 9.96304 17.1545 9.96367 17.1545C9.98403 17.1565 10.0045 17.1565 10.0249 17.1545C10.034 17.1528 10.0429 17.1507 10.0518 17.1483C10.0535 17.1483 10.0551 17.1483 10.0568 17.1483C10.0591 17.1483 10.0614 17.1483 10.0637 17.1483C10.0717 17.1465 10.0796 17.1444 10.0874 17.142C10.0971 17.1391 10.1067 17.1358 10.1162 17.132C10.1204 17.13 10.1245 17.1279 10.1287 17.1257L16.6809 14.329C16.7499 14.3011 16.8067 14.2496 16.8411 14.1836C16.8755 14.1176 16.8852 14.0415 16.8684 13.969C16.8732 13.9457 16.8753 13.9221 16.8747 13.8984V9.29168L19.8121 8.01609C19.8625 7.99416 19.9063 7.95932 19.9389 7.91508C19.9716 7.87083 19.992 7.81875 19.9981 7.7641C20.0042 7.70944 19.9957 7.65416 19.9736 7.60381C19.9515 7.55346 19.9165 7.5098 19.8721 7.47732L16.9509 5.35367C16.9501 5.35158 16.9493 5.34949 16.9484 5.34741C16.9476 5.34532 16.9468 5.34323 16.9459 5.34116L19.5827 3.42433C19.6273 3.39188 19.6624 3.34826 19.6846 3.29784C19.7069 3.24743 19.7153 3.19201 19.7093 3.13725C19.7032 3.08249 19.6827 3.03034 19.6499 2.98604C19.6172 2.94174 19.5733 2.90683 19.5227 2.88495L12.9692 0.0388254C12.9308 0.0217641 12.8893 0.0126433 12.8473 0.0119708C12.78 0.0112478 12.7142 0.0322588 12.6598 0.0719359L9.86367 2.10503L7.05126 0.0606829C6.99176 0.0169424 6.91869 -0.00428051 6.84502 0.000717835V0.00632526ZM6.82939 0.678186L9.38181 2.5344L3.45763 5.06742L0.938959 3.2362L6.82939 0.678186ZM12.8836 0.688142L18.7734 3.24619L16.3697 4.99304L10.4461 2.46001L12.8836 0.688142ZM10.0005 2.94995L15.8622 5.45674L9.99991 7.96421L8.1131 7.15796L5.69005 6.12238L4.13511 5.45674L10.0005 2.94995ZM16.5528 5.843L19.0615 7.66667L13.1717 10.2247L10.628 8.37542L16.5528 5.843ZM3.47138 5.853L5.44506 6.6967L7.86811 7.73236L9.39368 8.38542L6.82939 10.251L0.939584 7.69231L3.47138 5.853ZM10.313 8.91915L12.9498 10.8354C12.9937 10.8673 13.0451 10.8872 13.099 10.8933C13.1529 10.8993 13.2075 10.8911 13.2573 10.8697L16.2503 9.56976V13.8396L10.313 16.3739V8.91915ZM9.68805 8.94356V16.3739L3.75074 13.8396V9.5954L6.74377 10.8953C6.7936 10.9168 6.84815 10.9249 6.90207 10.9189C6.95598 10.9129 7.0074 10.8929 7.05126 10.861L9.68805 8.94356ZM12.7967 12.4053C12.7957 12.4053 12.7946 12.4053 12.7936 12.4053C12.7552 12.4073 12.7174 12.4164 12.6823 12.4321L11.0199 13.1428C10.9821 13.159 10.9479 13.1824 10.9192 13.2118C10.8905 13.2411 10.8679 13.2759 10.8527 13.3141C10.8374 13.3522 10.8298 13.3929 10.8303 13.434C10.8308 13.4751 10.8393 13.5156 10.8555 13.5534C10.8717 13.5912 10.8951 13.6253 10.9245 13.654C10.9539 13.6827 10.9886 13.7054 11.0268 13.7206C11.0649 13.7359 11.1057 13.7435 11.1467 13.743C11.1878 13.7425 11.2284 13.7339 11.2661 13.7177L12.9273 13.0072C12.9965 12.9801 13.0538 12.9293 13.089 12.8639C13.1241 12.7984 13.1348 12.7226 13.119 12.65C13.1033 12.5773 13.0622 12.5127 13.0032 12.4676C12.9441 12.4226 12.8709 12.4 12.7967 12.4041V12.4053ZM14.4585 12.8315C14.4573 12.8315 14.456 12.8315 14.4548 12.8315C14.4163 12.8336 14.3786 12.8427 14.3435 12.8584L12.6823 13.5684L11.0199 14.279C10.9804 14.2939 10.9443 14.3166 10.9138 14.3458C10.8833 14.3751 10.8591 14.4101 10.8425 14.449C10.826 14.4878 10.8175 14.5297 10.8175 14.5719C10.8176 14.6141 10.8262 14.6558 10.8429 14.6946C10.8595 14.7334 10.8839 14.7685 10.9144 14.7976C10.945 14.8268 10.9812 14.8494 11.0207 14.8642C11.0603 14.8789 11.1024 14.8855 11.1446 14.8835C11.1868 14.8816 11.2281 14.8711 11.2661 14.8527L12.9273 14.1434L14.5891 13.4328C14.6579 13.4054 14.7148 13.3545 14.7496 13.2891C14.7844 13.2238 14.7948 13.1482 14.779 13.0759C14.7633 13.0035 14.7223 12.9391 14.6635 12.8942C14.6047 12.8492 14.5318 12.8266 14.4579 12.8303L14.4585 12.8315Z" fill="white"/>
</svg>
