<svg width="52" height="52" viewBox="0 0 52 52" fill="none" xmlns="http://www.w3.org/2000/svg">
<path fill-rule="evenodd" clip-rule="evenodd" d="M26 0C40.3594 0 52 11.6406 52 26C52 40.3595 40.3594 52 26 52C11.6406 52 0 40.3595 0 26C0 11.6406 11.6406 0 26 0Z" fill="#0E0E11"/>
<path fill-rule="evenodd" clip-rule="evenodd" d="M18.2857 24.1297L10.3106 27.5663C10.2982 27.429 10.2914 27.2899 10.2914 27.1493C10.2914 24.6266 12.3364 22.5816 14.8591 22.5816C16.2239 22.5816 17.4488 23.1806 18.2857 24.1297ZM14.8591 19.1657C18.6223 19.1657 21.7767 21.7696 22.6205 25.274L19.4027 26.681L19.402 26.6743L16.11 28.1206L8.21303 31.5735C7.36822 30.307 6.87549 28.7857 6.87549 27.1493C6.87549 22.74 10.4498 19.1657 14.8591 19.1657ZM20.4376 32.8602C17.5791 35.5733 13.7976 35.8395 10.4748 33.8223L12.3522 30.9679C14.2429 32.0981 16.1424 31.9148 18.0506 30.4166L20.4376 32.8602ZM23.6883 30.8841L23.6682 15.7866H26.5285V30.4764C26.5285 30.6173 26.5459 30.7415 26.7308 30.8133L29.2191 31.781L28.098 34.6958L25.1832 33.4626C24.0779 32.9949 23.6903 32.3173 23.6883 30.8841Z" fill="white"/>
<path fill-rule="evenodd" clip-rule="evenodd" d="M34.4584 30.6304C33.3862 29.7968 32.6959 28.4957 32.6959 27.0324C32.6959 25.7315 33.242 24.5589 34.1163 23.7287L32.2689 20.7346C30.4118 22.206 29.2192 24.4792 29.2192 27.0324C29.2192 29.7844 30.6037 32.2123 32.7137 33.6598L34.4584 30.6304Z" fill="#2091C3"/>
<path fill-rule="evenodd" clip-rule="evenodd" d="M35.7103 22.7431C36.1917 22.57 36.7107 22.4751 37.2518 22.4751C39.2027 22.4751 40.8662 23.7016 41.516 25.4252L45.056 25.1295C44.2015 21.6113 41.0328 18.9985 37.2518 18.9985C36.1835 18.9985 35.1648 19.2089 34.2324 19.5875L35.7103 22.7431Z" fill="#FAEC32"/>
<path fill-rule="evenodd" clip-rule="evenodd" d="M41.8028 27.252C41.6875 29.6657 39.6944 31.5875 37.2521 31.5875C36.8692 31.5875 36.4978 31.5395 36.1426 31.4507L34.7539 34.6659C35.5405 34.9229 36.3796 35.064 37.2521 35.064C41.5778 35.064 45.1031 31.6444 45.2765 27.3613L41.8028 27.252Z" fill="#D0352A"/>
</svg>
