<svg viewBox="0 0 51 57" fill="none" xmlns="http://www.w3.org/2000/svg">
<path d="M43.3633 0.255859H7.72518C3.50752 0.255859 0.0884399 4.04962 0.0884399 8.72946V48.273C0.0884399 52.9528 3.50752 56.7466 7.72518 56.7466H43.3633C47.5809 56.7466 51 52.9528 51 48.273V8.72946C51 4.04962 47.5809 0.255859 43.3633 0.255859Z" fill="#1877F2"/>
<path d="M35.4482 36.6655L36.5817 28.5008H29.5217V23.2048C29.5217 20.9761 30.5062 18.7915 33.6683 18.7915H36.8801V11.8405C36.8801 11.8405 33.9666 11.2888 31.1823 11.2888C25.3653 11.2888 21.5668 15.1946 21.5668 22.278V28.5008H15.1034V36.6655H21.5668V56.7462H29.5217V36.6655H35.4482Z" fill="white"/>
</svg>
