<svg width="23" height="23" viewBox="0 0 23 23" fill="none" xmlns="http://www.w3.org/2000/svg">
<path d="M11.5 0C5.1589 0 0 5.00124 0 11.1485V11.9445V15.608V15.7674C0 16.909 1.03155 17.8377 2.3 17.8377H3.45C4.08595 17.8377 4.6 17.3382 4.6 16.7228V10.9891C4.6 10.3737 4.08595 9.87426 3.45 9.87426H2.4058C3.0452 5.55978 6.8747 2.22971 11.5 2.22971C16.1253 2.22971 19.9548 5.55978 20.5942 9.87426H19.55C18.914 9.87426 18.4 10.3737 18.4 10.9891V15.608V16.7228V17.8377C18.4 19.0674 17.3685 20.0674 16.1 20.0674H13.8V18.9525H9.2V22.2971H11.5H13.8H16.1C18.6369 22.2971 20.7 20.297 20.7 17.8377C21.9685 17.8377 23 16.909 23 15.7674V15.608V11.9445V11.1485C23 5.00124 17.8411 0 11.5 0Z" fill="#D9D9D9"/>
</svg>
