<svg  viewBox="0 0 56 57" fill="none" xmlns="http://www.w3.org/2000/svg">
<path d="M46.9278 0.255859H8.7383C4.2187 0.255859 0.55484 4.04963 0.55484 8.72947V48.273C0.55484 52.9528 4.2187 56.7466 8.7383 56.7466H46.9278C51.4474 56.7466 55.1112 52.9528 55.1112 48.273V8.72947C55.1112 4.04963 51.4474 0.255859 46.9278 0.255859Z" fill="black"/>
<path d="M46.9278 0.255859H8.7383C4.2187 0.255859 0.55484 4.04963 0.55484 8.72947V48.273C0.55484 52.9528 4.2187 56.7466 8.7383 56.7466H46.9278C51.4474 56.7466 55.1112 52.9528 55.1112 48.273V8.72947C55.1112 4.04963 51.4474 0.255859 46.9278 0.255859Z" fill="url(#paint0_radial_38_294)"/>
<path d="M46.9278 0.255859H8.7383C4.2187 0.255859 0.55484 4.04963 0.55484 8.72947V48.273C0.55484 52.9528 4.2187 56.7466 8.7383 56.7466H46.9278C51.4474 56.7466 55.1112 52.9528 55.1112 48.273V8.72947C55.1112 4.04963 51.4474 0.255859 46.9278 0.255859Z" fill="url(#paint1_linear_38_294)"/>
<path d="M35.6117 11.51H20.0546C15.2878 11.51 11.4236 15.5112 11.4236 20.447V36.5557C11.4236 41.4915 15.2878 45.4927 20.0546 45.4927H35.6117C40.3784 45.4927 44.2427 41.4915 44.2427 36.5557V20.447C44.2427 15.5112 40.3784 11.51 35.6117 11.51Z" stroke="white" stroke-width="4"/>
<path d="M27.8332 36.4456C32.0703 36.4456 35.5051 32.889 35.5051 28.5016C35.5051 24.1143 32.0703 20.5576 27.8332 20.5576C23.596 20.5576 20.1612 24.1143 20.1612 28.5016C20.1612 32.889 23.596 36.4456 27.8332 36.4456Z" stroke="white" stroke-width="4"/>
<path d="M37.5299 19.1238C37.8831 19.1238 38.1695 18.8273 38.1695 18.4616C38.1695 18.0958 37.8831 17.7993 37.5299 17.7993C37.1767 17.7993 36.8904 18.0958 36.8904 18.4616C36.8904 18.8273 37.1767 19.1238 37.5299 19.1238Z" stroke="white" stroke-width="2"/>
<defs>
<radialGradient id="paint0_radial_38_294" cx="0" cy="0" r="1" gradientUnits="userSpaceOnUse" gradientTransform="translate(22.3774 56.7466) scale(54.5564 56.4907)">
<stop offset="0.1" stop-color="#FFDD55"/>
<stop offset="0.5" stop-color="#FF543E"/>
<stop offset="1" stop-color="#C837AB"/>
</radialGradient>
<linearGradient id="paint1_linear_38_294" x1="0.55484" y1="0.255859" x2="12.2212" y2="56.5902" gradientUnits="userSpaceOnUse">
<stop offset="0.1" stop-color="#3771C8"/>
<stop offset="0.5" stop-color="#6600FF" stop-opacity="0"/>
</linearGradient>
</defs>
</svg>
