<svg width="18" height="18" viewBox="0 0 18 18" fill="none" xmlns="http://www.w3.org/2000/svg">
<path d="M7 2.00001C8.38 2.00001 9.63 2.56001 10.54 3.46001L8.85 5.15001C8.7809 5.22051 8.73421 5.30988 8.71582 5.40687C8.69742 5.50386 8.70816 5.60412 8.74665 5.69502C8.78515 5.78592 8.8497 5.86339 8.93215 5.91767C9.01461 5.97194 9.11129 6.00059 9.21 6.00001H13.5C13.78 6.00001 14 5.78001 14 5.50001V1.21001C14 0.760015 13.46 0.540015 13.15 0.860015L11.95 2.06001C11.3027 1.40567 10.5317 0.88658 9.68187 0.532928C8.83208 0.179277 7.92044 -0.00187353 7 1.46094e-05C3.96 1.46094e-05 1.38 1.94002 0.42 4.64002C0.18 5.30001 0.65 6.00001 1.35 6.00001C1.77 6.00001 2.14 5.74002 2.28 5.34001C2.62477 4.36354 3.26382 3.51799 4.10914 2.91982C4.95446 2.32165 5.96445 2.00029 7 2.00001ZM12.64 11.14C13.04 10.6 13.36 9.99001 13.59 9.34001C13.82 8.69001 13.34 8.00001 12.65 8.00001C12.4455 7.99924 12.2459 8.06246 12.0791 8.18081C11.9123 8.29916 11.7868 8.46672 11.72 8.66001C11.3752 9.63649 10.7362 10.482 9.89086 11.0802C9.04554 11.6784 8.03555 11.9997 7 12C5.62 12 4.37 11.44 3.46 10.54L5.15 8.85001C5.2191 8.77952 5.26579 8.69015 5.28418 8.59316C5.30257 8.49617 5.29184 8.39591 5.25335 8.30501C5.21485 8.21411 5.1503 8.13664 5.06785 8.08236C4.98539 8.02809 4.88871 7.99943 4.79 8.00001H0.5C0.22 8.00001 0 8.22001 0 8.50001V12.79C0 13.24 0.54 13.46 0.85 13.14L2.05 11.94C3.23005 13.1262 4.79676 13.8494 6.46503 13.9778C8.13329 14.1063 9.79224 13.6316 11.14 12.64L15.25 16.75C15.66 17.16 16.33 17.16 16.74 16.75C17.15 16.34 17.15 15.67 16.74 15.26L12.64 11.14Z" fill="white"/>
</svg>
