<svg width="45" height="37" viewBox="0 0 45 37" fill="none" xmlns="http://www.w3.org/2000/svg">
<path d="M40.873 0.0327148H5.10531C2.82598 0.0327148 0.978271 2.0829 0.978271 4.61201V32.0878C0.978271 34.6169 2.82598 36.6671 5.10531 36.6671H40.873C43.1523 36.6671 45 34.6169 45 32.0878V4.61201C45 2.0829 43.1523 0.0327148 40.873 0.0327148ZM40.873 4.61201V8.50489C38.9451 10.2468 35.8717 12.9555 29.3012 18.6642C27.8532 19.928 24.9849 22.9642 22.9891 22.9288C20.9937 22.9646 18.1245 19.9276 16.6771 18.6642C10.1076 12.9563 7.03341 10.2471 5.10531 8.50489V4.61201H40.873ZM5.10531 32.0878V14.381C7.07545 16.1222 9.86937 18.5655 14.1279 22.2656C16.0071 23.907 19.2982 27.5304 22.9891 27.5084C26.6619 27.5304 29.9113 23.9595 31.8496 22.2663C36.1081 18.5664 38.9027 16.1224 40.873 14.3811V32.0878H5.10531Z" fill="white"/>
</svg>
