<svg width="80" height="49" viewBox="0 0 80 49" fill="none" xmlns="http://www.w3.org/2000/svg">
<path d="M28.1763 5.14648H51.9944V42.9748H28.1763V5.14648Z" fill="#FF5F00"/>
<path d="M30.5789 24.0603C30.5798 20.4212 31.4261 16.8294 33.0545 13.5539C34.6829 10.2784 37.0513 7.40405 39.9822 5.1461C36.3372 2.35555 31.9594 0.619944 27.3491 0.137673C22.7389 -0.344599 18.0824 0.445928 13.9118 2.41889C9.74119 4.39185 6.22486 7.46762 3.76474 11.2946C1.30462 15.1216 0 19.5454 0 24.0603C0 28.5751 1.30462 32.9989 3.76474 36.8259C6.22486 40.6529 9.74119 43.7287 13.9118 45.7016C18.0824 47.6746 22.7389 48.4651 27.3491 47.9828C31.9594 47.5006 36.3372 45.765 39.9822 42.9744C37.0513 40.7165 34.6829 37.8421 33.0545 34.5666C31.4261 31.2911 30.5798 27.6994 30.5789 24.0603Z" fill="#EB001B"/>
<path d="M80 24.0615C80.0033 28.5731 78.7026 32.9945 76.2465 36.8201C73.7904 40.6457 70.2781 43.721 66.1114 45.6942C61.9447 47.6674 57.2918 48.4589 52.6848 47.9781C48.0778 47.4974 43.7027 45.7638 40.0601 42.9757C42.9917 40.7183 45.3605 37.8441 46.9891 34.5685C48.6176 31.2929 49.4636 27.7008 49.4636 24.0615C49.4636 20.4223 48.6176 16.8302 46.9891 13.5546C45.3605 10.2789 42.9917 7.40473 40.0601 5.14737C43.7027 2.35924 48.0778 0.625661 52.6848 0.144918C57.2918 -0.335826 61.9447 0.455673 66.1114 2.42889C70.2781 4.4021 73.7904 7.47736 76.2465 11.3029C78.7026 15.1285 80.0033 19.5499 80 24.0615Z" fill="#F79E1B"/>
</svg>
