<svg width="90" height="32" viewBox="0 0 90 32" fill="none" xmlns="http://www.w3.org/2000/svg">
<path d="M37.1494 29.6272V11.6091C37.1494 8.29393 39.837 5.6065 43.1523 5.6065L48.4721 5.61435C51.7778 5.62096 54.4541 8.30261 54.4541 11.6083V15.4436C54.4541 18.7588 51.7665 21.4465 48.4513 21.4465H40.9339" stroke="white" stroke-miterlimit="10" stroke-linecap="round" stroke-linejoin="round"/>
<path d="M55.9409 5.60396H58.2486C59.6092 5.60396 60.712 6.70691 60.712 8.0675V21.5271" stroke="white" stroke-miterlimit="10" stroke-linecap="round" stroke-linejoin="round"/>
<path d="M60.2169 3.51885L59.1704 2.47222C58.9107 2.21266 58.9107 1.79158 59.1704 1.53188L60.2163 0.486073C60.4763 0.225964 60.8979 0.225964 61.1579 0.486073L62.2038 1.53188C62.4635 1.79158 62.4635 2.21266 62.2038 2.47222L61.1573 3.51885C60.8976 3.77855 60.4766 3.77855 60.2169 3.51885Z" fill="#32BCAD"/>
<path d="M65.1392 5.59198H67.4277C68.605 5.59198 69.7341 6.0596 70.5665 6.89212L75.9195 12.245C76.6129 12.9385 77.7371 12.9385 78.4305 12.245L83.7639 6.91167C84.5963 6.07929 85.7254 5.61167 86.9027 5.61167H88.7633" stroke="white" stroke-miterlimit="10" stroke-linecap="round" stroke-linejoin="round"/>
<path d="M65.1392 21.4092H67.4277C68.605 21.4092 69.7341 20.9416 70.5665 20.109L75.9195 14.7561C76.6129 14.0626 77.7371 14.0626 78.4305 14.7561L83.7639 20.0894C84.5963 20.9219 85.7254 21.3895 86.9027 21.3895H88.7633" stroke="white" stroke-miterlimit="10" stroke-linecap="round" stroke-linejoin="round"/>
<path d="M23.505 24.829C22.3564 24.829 21.2761 24.3817 20.464 23.5699L16.0728 19.1789C15.7647 18.8697 15.2272 18.8707 14.9191 19.1789L10.5119 23.586C9.69966 24.3977 8.61943 24.845 7.47076 24.845H6.60547L12.1668 30.4064C13.9037 32.1432 16.7197 32.1432 18.4566 30.4064L24.0341 24.829H23.505Z" fill="#32BCAD"/>
<path d="M7.47111 9.29683C8.61978 9.29683 9.70001 9.74421 10.5121 10.5561L14.9193 14.9639C15.2367 15.2813 15.755 15.2827 16.0732 14.9635L20.4642 10.572C21.2765 9.76018 22.3567 9.31294 23.5054 9.31294H24.0343L18.457 3.73566C16.7201 1.99875 13.904 1.99875 12.1671 3.73566L6.60596 9.29683H7.47111Z" fill="#32BCAD"/>
<path d="M28.6472 13.9261L25.2768 10.5557C25.2026 10.5854 25.1223 10.604 25.0375 10.604H23.5052C22.7129 10.604 21.9373 10.9253 21.3776 11.4854L16.9865 15.8766C16.5757 16.2875 16.0358 16.4932 15.4963 16.4932C14.9564 16.4932 14.4169 16.2875 14.006 15.877L9.59846 11.4695C9.03858 10.9093 8.26321 10.5881 7.4709 10.5881H5.58665C5.50637 10.5881 5.43119 10.5691 5.36028 10.5423L1.97651 13.9261C0.239601 15.6629 0.239601 18.4789 1.97651 20.216L5.36014 23.5996C5.43105 23.5729 5.50637 23.5539 5.58665 23.5539H7.4709C8.26321 23.5539 9.03858 23.2326 9.59846 22.6725L14.0056 18.2654C14.8022 17.4695 16.1907 17.4691 16.9865 18.2658L21.3776 22.6564C21.9373 23.2167 22.7129 23.5379 23.5052 23.5379H25.0375C25.1224 23.5379 25.2026 23.5564 25.2769 23.5861L28.6472 20.216C30.3841 18.4789 30.3841 15.6629 28.6472 13.9261Z" fill="#32BCAD"/>
<path d="M41.7241 28.0957C41.4755 28.0957 41.1859 28.1555 40.8996 28.2215V29.3196C41.098 29.392 41.3244 29.4267 41.5417 29.4267C42.0922 29.4267 42.3534 29.2411 42.3534 28.7563C42.3534 28.3001 42.1394 28.0957 41.7241 28.0957ZM40.7139 30.1348V27.9634H40.8649L40.8808 28.058C41.1356 27.9981 41.488 27.9195 41.7397 27.9195C41.9445 27.9195 42.1394 27.9506 42.303 28.0829C42.4919 28.2373 42.5517 28.4857 42.5517 28.7563C42.5517 29.0397 42.4572 29.3072 42.1993 29.455C42.0198 29.5556 41.7776 29.5965 41.5604 29.5965C41.3369 29.5965 41.1231 29.5617 40.8996 29.4959V30.1348H40.7139Z" fill="#939598"/>
<path d="M43.9339 28.0893C43.3831 28.0893 43.1377 28.2625 43.1377 28.7471C43.1377 29.2159 43.3801 29.4269 43.9339 29.4269C44.4814 29.4269 44.7269 29.2568 44.7269 28.7721C44.7269 28.3034 44.4847 28.0893 43.9339 28.0893ZM44.6418 29.4269C44.4594 29.5588 44.214 29.5967 43.9339 29.5967C43.6476 29.5967 43.4021 29.5556 43.2226 29.4269C43.0212 29.2853 42.9395 29.0522 42.9395 28.7598C42.9395 28.4702 43.0212 28.2344 43.2226 28.0893C43.4021 27.9604 43.6476 27.9197 43.9339 27.9197C44.2171 27.9197 44.4594 27.9604 44.6418 28.0893C44.8466 28.2344 44.925 28.4702 44.925 28.7565C44.925 29.0492 44.8433 29.2853 44.6418 29.4269Z" fill="#939598"/>
<path d="M47.249 29.5527L46.6352 28.2344H46.6226L46.0184 29.5527H45.8517L45.1973 27.9636H45.4016L45.9461 29.2976H45.9587L46.5503 27.9636H46.7202L47.3274 29.2976H47.3402L47.872 27.9636H48.0702L47.4156 29.5527H47.249Z" fill="#939598"/>
<path d="M49.257 28.0861C48.7472 28.0861 48.5742 28.3127 48.5426 28.6401H49.9712C49.9557 28.2784 49.7699 28.0861 49.257 28.0861ZM49.2508 29.5967C48.9454 29.5967 48.7472 29.5526 48.5899 29.4202C48.4041 29.2597 48.3413 29.0272 48.3413 28.7598C48.3413 28.5047 48.4263 28.2343 48.6372 28.0799C48.8133 27.9573 49.0305 27.9195 49.257 27.9195C49.4616 27.9195 49.6976 27.9414 49.8926 28.0738C50.1223 28.2277 50.1665 28.4985 50.1665 28.8067H48.5364C48.5426 29.134 48.6497 29.4237 49.2664 29.4237C49.5591 29.4237 49.8328 29.3762 50.0879 29.3323V29.4991C49.8233 29.5464 49.5307 29.5967 49.2508 29.5967Z" fill="#939598"/>
<path d="M50.6992 29.5527V27.9636H50.8503L50.8661 28.0582C51.2026 27.9731 51.3602 27.9196 51.6558 27.9196H51.678V28.0959H51.6339C51.3852 28.0959 51.2343 28.1302 50.885 28.2216V29.5527H50.6992Z" fill="#939598"/>
<path d="M52.7565 28.0861C52.2468 28.0861 52.0737 28.3127 52.0421 28.6401H53.4707C53.4552 28.2784 53.2694 28.0861 52.7565 28.0861ZM52.7503 29.5967C52.4449 29.5967 52.2468 29.5526 52.0894 29.4202C51.9036 29.2597 51.8408 29.0272 51.8408 28.7598C51.8408 28.5047 51.9258 28.2343 52.1367 28.0799C52.3128 27.9573 52.53 27.9195 52.7565 27.9195C52.9611 27.9195 53.1971 27.9414 53.3921 28.0738C53.6218 28.2277 53.666 28.4985 53.666 28.8067H52.0359C52.0421 29.134 52.1493 29.4237 52.7659 29.4237C53.0586 29.4237 53.3324 29.3762 53.5874 29.3323V29.4991C53.3229 29.5464 53.0302 29.5967 52.7503 29.5967Z" fill="#939598"/>
<path d="M55.6995 28.1966C55.5013 28.124 55.2747 28.0893 55.0576 28.0893C54.5069 28.0893 54.2456 28.2752 54.2456 28.7598C54.2456 29.219 54.4596 29.4203 54.8749 29.4203C55.1236 29.4203 55.4132 29.3605 55.6995 29.2976V28.1966ZM55.7342 29.5528L55.7183 29.4582C55.4636 29.5179 55.1111 29.5967 54.8594 29.5967C54.6549 29.5967 54.4596 29.5685 54.296 29.433C54.1073 29.2786 54.0474 29.0303 54.0474 28.7598C54.0474 28.4767 54.1418 28.2088 54.3999 28.0641C54.5793 27.9604 54.8215 27.9195 55.0418 27.9195C55.2621 27.9195 55.476 27.9574 55.6995 28.0202V27.2933H55.8852V29.5528H55.7342Z" fill="#939598"/>
<path d="M58.6075 28.0957C58.3588 28.0957 58.0692 28.1554 57.7829 28.2214V29.3164C57.9844 29.392 58.2077 29.4267 58.425 29.4267C58.9755 29.4267 59.2367 29.241 59.2367 28.7562C59.2367 28.3 59.0227 28.0957 58.6075 28.0957ZM59.0825 29.4549C58.9031 29.5555 58.6609 29.5964 58.4437 29.5964C58.2077 29.5964 57.9718 29.5555 57.7325 29.4768L57.7232 29.5525H57.5972V27.2932H57.7829V28.0513C58.0378 27.995 58.3808 27.9194 58.623 27.9194C58.8278 27.9194 59.0227 27.9505 59.1863 28.0829C59.3752 28.2372 59.435 28.4856 59.435 28.7562C59.435 29.0396 59.3404 29.3071 59.0825 29.4549Z" fill="#939598"/>
<path d="M59.6816 30.1629V29.9901C59.7729 29.9994 59.858 30.0059 59.9178 30.0059C60.1475 30.0059 60.2858 29.9395 60.4149 29.6783L60.4746 29.5526L59.644 27.9634H59.858L60.5692 29.3353H60.5818L61.2583 27.9634H61.4691L60.5754 29.7477C60.4118 30.0719 60.2355 30.1787 59.9113 30.1787C59.839 30.1787 59.7604 30.1725 59.6816 30.1629Z" fill="#939598"/>
<path d="M64.028 28.6464H63.4112V29.2035H64.031C64.4558 29.2035 64.6162 29.156 64.6162 28.9235C64.6162 28.6745 64.3962 28.6464 64.028 28.6464ZM63.9146 27.7431H63.4112V28.3096H63.9178C64.3364 28.3096 64.503 28.2593 64.503 28.0233C64.503 27.7718 64.2922 27.7431 63.9146 27.7431ZM64.8714 29.4018C64.6447 29.5465 64.371 29.5527 63.8704 29.5527H62.9297V27.3972H63.8485C64.2797 27.3972 64.5439 27.4034 64.7642 27.5357C64.9216 27.6302 64.9845 27.7749 64.9845 27.9636C64.9845 28.1901 64.8902 28.3411 64.6447 28.4419V28.4542C64.9216 28.5175 65.101 28.6592 65.101 28.9644C65.101 29.1719 65.0254 29.3074 64.8714 29.4018Z" fill="#939598"/>
<path d="M66.9835 28.8856C66.7978 28.8698 66.6091 28.8604 66.4108 28.8604C66.0867 28.8604 65.9734 28.9265 65.9734 29.0743C65.9734 29.2128 66.0678 29.2884 66.3162 29.2884C66.524 29.2884 66.7727 29.2413 66.9835 29.1938V28.8856ZM67.0778 29.5528L67.0653 29.4582C66.7947 29.5245 66.4801 29.5967 66.2031 29.5967C66.0331 29.5967 65.8505 29.5746 65.7215 29.4801C65.6021 29.3952 65.5454 29.2567 65.5454 29.0962C65.5454 28.9169 65.6242 28.7503 65.8128 28.6653C65.9797 28.5865 66.2031 28.5803 66.4077 28.5803C66.5744 28.5803 66.7978 28.5897 66.9835 28.6024V28.5739C66.9835 28.3255 66.8198 28.2437 66.373 28.2437C66.2 28.2437 65.9891 28.2528 65.7878 28.2718V27.9508C66.0111 27.9322 66.2628 27.9195 66.4706 27.9195C66.7475 27.9195 67.0339 27.9416 67.21 28.0673C67.3925 28.1966 67.4272 28.376 67.4272 28.6117V29.5528H67.0778Z" fill="#939598"/>
<path d="M69.5016 29.5527V28.6745C69.5016 28.3852 69.3539 28.2815 69.0894 28.2815C68.8944 28.2815 68.649 28.3316 68.4412 28.3822V29.5527H67.9976V27.9636H68.3594L68.375 28.0641C68.6552 27.9921 68.9667 27.9196 69.2249 27.9196C69.4198 27.9196 69.6181 27.9477 69.7692 28.0831C69.8949 28.1966 69.9423 28.3535 69.9423 28.5803V29.5527H69.5016Z" fill="#939598"/>
<path d="M71.1959 29.5967C70.9915 29.5967 70.7678 29.5685 70.6042 29.4299C70.4093 29.2725 70.3525 29.0241 70.3525 28.7563C70.3525 28.5047 70.4343 28.2309 70.6767 28.0769C70.8748 27.9476 71.1203 27.9195 71.3754 27.9195C71.5578 27.9195 71.7372 27.9322 71.9354 27.9508V28.2908C71.7748 28.2752 71.5829 28.2625 71.4288 28.2625C71.007 28.2625 70.8087 28.3947 70.8087 28.7598C70.8087 29.1028 70.9568 29.2505 71.3028 29.2505C71.5041 29.2505 71.7402 29.2128 71.9701 29.1689V29.496C71.7214 29.5466 71.4508 29.5967 71.1959 29.5967Z" fill="#939598"/>
<path d="M73.2805 28.2528C72.8587 28.2528 72.673 28.3852 72.673 28.7471C72.673 29.109 72.8556 29.2633 73.2805 29.2633C73.699 29.2633 73.8814 29.134 73.8814 28.772C73.8814 28.4103 73.7023 28.2528 73.2805 28.2528ZM74.042 29.4299C73.8469 29.5618 73.5921 29.5967 73.2805 29.5967C72.9626 29.5967 72.7078 29.5587 72.5159 29.4299C72.2956 29.2852 72.2168 29.046 72.2168 28.7598C72.2168 28.4732 72.2956 28.2309 72.5159 28.0861C72.7078 27.9573 72.9626 27.9195 73.2805 27.9195C73.5951 27.9195 73.8469 27.9573 74.042 28.0861C74.2621 28.2309 74.3379 28.4732 74.3379 28.7563C74.3379 29.0429 74.2591 29.2852 74.042 29.4299Z" fill="#939598"/>
<path d="M76.8997 29.5967C76.6325 29.5967 76.3429 29.5528 76.1256 29.3732C75.8677 29.1591 75.7891 28.8289 75.7891 28.4732C75.7891 28.1555 75.8897 27.778 76.2263 27.5575C76.4875 27.3879 76.8116 27.3532 77.1389 27.3532C77.3782 27.3532 77.6235 27.3689 77.8911 27.3909V27.778C77.6613 27.759 77.3782 27.7431 77.1579 27.7431C76.5442 27.7431 76.283 27.9761 76.283 28.4732C76.283 28.9801 76.5253 29.2066 76.9785 29.2066C77.2741 29.2066 77.6046 29.1467 77.9382 29.0774V29.4613C77.6046 29.5276 77.2553 29.5967 76.8997 29.5967Z" fill="#939598"/>
<path d="M79.242 28.2026C78.8738 28.2026 78.7321 28.3351 78.7037 28.5773H79.7738C79.7611 28.3193 79.6101 28.2026 79.242 28.2026ZM79.1759 29.5967C78.9147 29.5967 78.6787 29.5653 78.5024 29.4203C78.3138 29.2633 78.2476 29.0272 78.2476 28.7563C78.2476 28.5141 78.3263 28.2437 78.5466 28.0861C78.7416 27.9476 78.9903 27.9195 79.242 27.9195C79.4685 27.9195 79.7361 27.9446 79.931 28.0799C80.1861 28.2594 80.2081 28.5364 80.2113 28.8636H78.7007C78.7102 29.1059 78.8392 29.2633 79.2859 29.2633C79.563 29.2633 79.8713 29.2224 80.1325 29.1814V29.4929C79.8272 29.5434 79.4937 29.5967 79.1759 29.5967Z" fill="#939598"/>
<path d="M82.1847 29.5527V28.6745C82.1847 28.3852 82.037 28.2815 81.7725 28.2815C81.5775 28.2815 81.3321 28.3316 81.1243 28.3822V29.5527H80.6807V27.9636H81.0425L81.0582 28.0641C81.3383 27.9921 81.6498 27.9196 81.908 27.9196C82.1029 27.9196 82.3012 27.9477 82.4523 28.0831C82.5781 28.1966 82.6254 28.3535 82.6254 28.5803V29.5527H82.1847Z" fill="#939598"/>
<path d="M83.8886 29.5967C83.6746 29.5967 83.4794 29.5368 83.3725 29.37C83.2939 29.2567 83.256 29.1028 83.256 28.8886V28.2938H82.9351V27.9636H83.256L83.3034 27.4821H83.6967V27.9636H84.3228V28.2938H83.6967V28.8038C83.6967 28.9265 83.706 29.0303 83.7406 29.1059C83.788 29.2128 83.8916 29.2537 84.0302 29.2537C84.134 29.2537 84.26 29.2378 84.3478 29.2224V29.5399C84.2032 29.5685 84.0364 29.5967 83.8886 29.5967Z" fill="#939598"/>
<path d="M84.7554 29.5527V27.9636H85.1172L85.1331 28.0641C85.4258 27.9824 85.6427 27.9196 85.9197 27.9196C85.9323 27.9196 85.9513 27.9196 85.9763 27.9225V28.3002C85.9259 28.2972 85.8662 28.2972 85.8222 28.2972C85.605 28.2972 85.4414 28.3223 85.199 28.3791V29.5527H84.7554Z" fill="#939598"/>
<path d="M87.5895 28.8856C87.4037 28.8698 87.2151 28.8604 87.0167 28.8604C86.6927 28.8604 86.5792 28.9265 86.5792 29.0743C86.5792 29.2128 86.6738 29.2884 86.9222 29.2884C87.13 29.2884 87.3787 29.2413 87.5895 29.1938V28.8856ZM87.6838 29.5528L87.6713 29.4582C87.4006 29.5245 87.0859 29.5967 86.809 29.5967C86.6391 29.5967 86.4565 29.5746 86.3275 29.4801C86.2081 29.3952 86.1514 29.2567 86.1514 29.0962C86.1514 28.9169 86.23 28.7503 86.4188 28.6653C86.5855 28.5865 86.809 28.5803 87.0136 28.5803C87.1802 28.5803 87.4037 28.5897 87.5895 28.6024V28.5739C87.5895 28.3255 87.4258 28.2437 86.9789 28.2437C86.8058 28.2437 86.595 28.2528 86.3936 28.2718V27.9508C86.6171 27.9322 86.8688 27.9195 87.0766 27.9195C87.3533 27.9195 87.6399 27.9416 87.816 28.0673C87.9984 28.1966 88.0331 28.376 88.0331 28.6117V29.5528H87.6838Z" fill="#939598"/>
<path d="M88.604 27.2932H89.0477V29.5525H88.604V27.2932Z" fill="#939598"/>
</svg>
