<svg width="45" height="49" viewBox="0 0 45 49" fill="none" xmlns="http://www.w3.org/2000/svg">
<path d="M42.7663 34.5162L33.1364 29.9368C32.725 29.7423 32.2678 29.7013 31.8336 29.82C31.3994 29.9387 31.0117 30.2107 30.7289 30.5951L26.4642 36.3765C19.7712 32.875 14.3849 26.8984 11.2292 19.472L16.4397 14.74C16.7867 14.4267 17.0324 13.9965 17.1395 13.5145C17.2465 13.0325 17.2091 12.525 17.0329 12.0687L12.9058 1.38344C12.7125 0.891549 12.3705 0.489935 11.9388 0.247851C11.5072 0.00576729 11.0129 -0.0616121 10.5413 0.0573312L1.59925 2.34702C1.14456 2.46352 0.738877 2.7476 0.448424 3.15288C0.15797 3.55816 -0.000104743 4.06071 5.20721e-08 4.57851C5.20721e-08 29.0495 17.8755 48.8458 39.8954 48.8458C40.3622 48.8461 40.8153 48.6708 41.1808 48.3485C41.5462 48.0262 41.8023 47.576 41.9074 47.0713L43.9709 37.1493C44.0774 36.6235 44.0154 36.0729 43.7955 35.5923C43.5757 35.1117 43.2117 34.7312 42.7663 34.5162Z" fill="white"/>
</svg>
