<svg width="90" height="31" viewBox="0 0 90 31" fill="none" xmlns="http://www.w3.org/2000/svg">
<path d="M31.7921 30.2432L36.3437 0.605888H43.6241L39.0691 30.2432H31.7921ZM65.3724 1.24478C63.9303 0.644343 61.67 0 58.8475 0C51.6533 0 46.5862 4.01973 46.5428 9.78081C46.5023 14.0394 50.1606 16.4153 52.9221 17.8328C55.7562 19.2859 56.7087 20.2122 56.6951 21.5092C56.6769 23.496 54.432 24.4031 52.3392 24.4031C49.4255 24.4031 47.8774 23.9539 45.4863 22.8478L44.5479 22.3768L43.5263 29.0113C45.2268 29.839 48.3712 30.5554 51.6363 30.5927C59.2894 30.5927 64.2576 26.6188 64.3141 20.4665C64.3413 17.0949 62.4017 14.5295 58.2013 12.414C55.6566 11.043 54.0981 10.1281 54.1146 8.73981C54.1146 7.5079 55.4338 6.1906 58.2844 6.1906C60.6648 6.14957 62.3897 6.72563 63.7334 7.32607L64.3858 7.66808L65.3724 1.24478ZM84.1075 0.605433H78.4819C76.7393 0.605433 75.4349 1.1332 74.6697 3.0632L63.8572 30.2237H71.5023C71.5023 30.2237 72.752 26.5719 73.0347 25.7699C73.8701 25.7699 81.2971 25.7827 82.3587 25.7827C82.5765 26.8203 83.2445 30.2237 83.2445 30.2237H90.0002L84.1075 0.604525V0.605433ZM75.1818 19.7435C75.784 18.0359 78.0826 11.4584 78.0826 11.4584C78.0397 11.5373 78.6803 9.74251 79.0478 8.62974L79.5398 11.185C79.5398 11.185 80.9338 18.2596 81.2253 19.743H75.1818V19.7435ZM25.6116 0.605433L18.4839 20.8169L17.7246 16.7096C16.3975 11.9749 12.2634 6.84509 7.6416 4.27695L14.1591 30.196L21.8621 30.1865L33.324 0.60513L25.6116 0.60498" fill="#0E4595"/>
<path d="M11.8329 0.606201H0.0930554L0 1.22284C9.13344 3.67606 15.1767 9.6046 17.6859 16.7289L15.1332 3.10924C14.6926 1.23253 13.4144 0.67236 11.8331 0.606957" fill="#F2AE14"/>
</svg>
